<svg width="307" height="50" viewBox="0 0 307 50" fill="none" xmlns="http://www.w3.org/2000/svg">
<path d="M21.0531 38.6532H28.4203V38.3934H27.4093C26.0235 38.3934 25.8491 38.2775 25.8491 36.8909V13.1808C25.8491 11.7939 26.0225 11.6786 27.4093 11.6786H28.4203V11.3605H21.0531V11.6206H22.0642C23.451 11.6206 23.5956 11.7372 23.5956 13.1232V36.8909C23.5956 38.2766 23.45 38.3934 22.0642 38.3934H21.0531V38.6532Z" fill="white"/>
<path d="M29.7746 29.4419V20.1677H29.5146V21.1791C29.5146 23.6515 28.3196 24.1497 26.9142 24.2286V24.7755C28.3202 24.8593 29.5146 25.3803 29.5146 27.8527V29.4419H29.7746Z" fill="white"/>
<path d="M22.5306 24.2416H20.1701V16.6722C20.1701 16.0366 19.881 15.5165 19.5343 15.1697V15.1408H22.5306V14.6208H15.3742V14.8809H16.3851C17.7719 14.8809 17.9166 15.0254 17.9166 16.4123V33.6022C17.9166 34.9888 17.7719 35.1332 16.3851 35.1332H15.3742V35.3933H22.5306V34.8732H19.5343V34.8441C19.881 34.4975 20.1701 33.9775 20.1701 33.3421V24.7617H22.5306V24.2416Z" fill="white"/>
<path d="M26.9142 15.1408H27.4829C30.2564 15.1408 31.7543 16.2105 31.9321 19.33L32.0475 21.3523H32.5675L32.0475 13.5228L31.7876 13.5423L31.8741 14.8809H31.8455C31.6432 14.6787 31.2385 14.6208 30.7764 14.6208H26.9142V15.1408Z" fill="white"/>
<path d="M26.9142 35.3933H32.3365C32.7989 35.3933 33.2033 35.3356 33.4055 35.1332H33.4346L33.3479 36.4719L33.608 36.4911L34.099 28.6619H33.6366L33.4632 30.973C33.2554 33.7459 31.9318 34.8732 29.1587 34.8732H26.9142V35.3933Z" fill="white"/>
<path d="M47.2745 31.7286L44.977 31.1024L45.0358 30.8869L45.4929 31.0117C45.7964 31.0942 45.9837 31.0617 46.1042 30.9665C46.2267 30.8697 46.2904 30.7019 46.3394 30.5219L46.3939 30.3217L44.4157 29.7824C44.3342 29.7608 44.2639 29.723 44.2054 29.6769C44.1845 29.6604 44.165 29.643 44.147 29.6245L43.8126 30.8515C43.7274 31.164 43.7266 31.4098 43.8219 31.601C43.9165 31.7911 44.1106 31.9337 44.4156 32.0411L45.0274 32.2582L44.9554 32.5219L42.9563 31.8398L43.031 31.6287L43.2958 31.7196L43.2963 31.7085C43.299 31.6559 43.3109 31.5972 43.3275 31.5368L44.2026 28.3257L44.4182 28.3843L44.3311 28.7036C44.2918 28.8481 44.276 28.9274 44.2983 28.9669C44.3212 29.0066 44.3975 29.0331 44.5421 29.0727L48.6589 30.1946C48.8036 30.2339 48.883 30.2497 48.9224 30.2272C48.9621 30.2047 48.9888 30.1283 49.0282 29.9835L49.115 29.6649L49.3305 29.7237L48.5572 32.5609C48.5407 32.6214 48.5212 32.6779 48.4972 32.7243L48.4918 32.7343L48.7661 32.7906L48.7235 33.0098L46.6526 32.5906L46.7288 32.3117L47.2939 32.4314C47.6511 32.5077 47.9099 32.4799 48.0972 32.3569C48.2852 32.2333 48.4091 32.0097 48.4945 31.6963L48.7195 30.8707C48.6949 30.8774 48.6692 30.8826 48.6427 30.8861C48.5686 30.8962 48.489 30.8928 48.4078 30.8708L46.6717 30.3973L46.6171 30.5977C46.568 30.7775 46.5363 30.9541 46.5912 31.0996C46.6451 31.2424 46.788 31.3646 47.0912 31.4471L47.4101 31.5341L47.3511 31.7496L47.2745 31.7286Z" fill="white"/>
<path d="M41.8111 34.9453L43.2092 32.1799L43.4088 32.2807L43.2597 32.5755C43.1939 32.7058 43.1717 32.7813 43.194 32.8307C43.2183 32.8843 43.2995 32.9327 43.4369 33.0021L47.2065 34.9078C47.3401 34.9753 47.4129 35.006 47.4537 34.9917C47.4954 34.9773 47.536 34.9067 47.6041 34.772L47.7532 34.4768L47.9529 34.5781L47.056 36.3518L46.8565 36.2512L47.0055 35.9562C47.0738 35.8208 47.1075 35.7442 47.0946 35.7C47.0822 35.6574 47.0154 35.616 46.8826 35.5491L43.1257 33.6497C43.0503 33.6115 42.9891 33.5606 42.941 33.5038C42.9239 33.4837 42.9083 33.4627 42.8944 33.4412L42.5277 34.1662C42.3783 34.4621 42.2827 34.7212 42.2952 34.9443C42.307 35.1572 42.4219 35.3445 42.691 35.5098L43.3675 35.9231L43.2311 36.1925L41.3348 35.06L41.4589 34.8652L41.7681 35.0487C41.7763 35.0195 41.79 34.9867 41.8111 34.9453Z" fill="white"/>
<path fill-rule="evenodd" clip-rule="evenodd" d="M40.771 41.029L43.2425 37.8898L43.2373 37.8859C42.5887 37.3754 41.9749 37.1271 41.4326 37.1192C40.88 37.1109 40.3986 37.3539 40.029 37.8235C39.7422 38.1877 39.5635 38.5735 39.4907 38.9586C39.4166 39.35 39.4515 39.7425 39.5929 40.1119L39.6248 40.1944L39.3429 40.2679L39.3178 40.2007C39.1622 39.7829 39.1258 39.3395 39.212 38.8963C39.2961 38.4649 39.4964 38.0339 39.8157 37.6283C40.3004 37.0126 40.9442 36.6478 41.6293 36.5691C42.2903 36.4934 42.9887 36.6836 43.6184 37.1713L43.6405 37.1882C44.2747 37.6878 44.6354 38.3194 44.7113 38.9877C44.7862 39.6477 44.5828 40.3413 44.0906 40.9764L44.0735 40.9984C43.6653 41.5169 43.1048 41.8472 42.5125 41.9343C41.9469 42.0172 41.3527 41.8786 40.8348 41.4709L40.8022 41.4452C40.7416 41.3954 40.7077 41.3246 40.7014 41.2504C40.6952 41.1763 40.7169 41.0977 40.7673 41.0337L40.771 41.029ZM44.2949 39.4009C44.2213 38.9523 43.9431 38.5059 43.464 38.0761L41.3397 40.8533C41.8032 41.2147 42.2868 41.3897 42.7283 41.3797C43.1675 41.3699 43.5674 41.1754 43.8646 40.7976C44.2287 40.3351 44.3711 39.8641 44.2949 39.4009Z" fill="white"/>
<path d="M41.3976 43.7132L41.4805 43.831L40.1894 44.7398L40.0607 44.5569L40.4267 44.2994C40.3462 44.2677 40.2637 44.2167 40.2005 44.1722L36.5524 41.8553C36.5416 41.8479 36.5103 41.8265 36.474 41.7975C36.4861 41.8334 36.4977 41.8751 36.5077 41.9226L37.4187 46.0076C37.4263 46.0423 37.4354 46.0737 37.4465 46.1017C37.4562 46.1262 37.467 46.1475 37.479 46.1654L37.4821 46.1698C37.5099 46.2094 37.5457 46.2324 37.5893 46.2339C37.6419 46.2357 37.7091 46.2112 37.7915 46.1544C37.9277 46.057 38.065 45.9608 38.2022 45.8646L38.3669 45.7491L38.4959 45.932L37.0872 46.9236L36.9586 46.7406L37.0938 46.6452C37.1655 46.5947 37.1962 46.5446 37.2013 46.4779C37.2074 46.3968 37.1827 46.2841 37.1464 46.1255L35.9878 41.158L36.3712 40.8434L40.6861 43.6342C40.8269 43.7254 40.9243 43.7865 41.0019 43.8066C41.066 43.8231 41.1235 43.8087 41.1988 43.7558L41.352 43.6479L41.3976 43.7132Z" fill="white"/>
<path fill-rule="evenodd" clip-rule="evenodd" d="M30.6842 46.8353L34.4075 45.3713L34.4049 45.3649C34.0979 44.5842 33.6847 44.0555 33.211 43.7784C32.7441 43.5052 32.2144 43.4766 31.6671 43.6916L31.6591 43.6948C31.2319 43.8643 30.8855 44.1057 30.6295 44.3997C30.3677 44.7007 30.1996 45.0567 30.1354 45.4464L30.1209 45.5341L29.8408 45.4553L29.853 45.3849C29.9296 44.9455 30.1222 44.544 30.4205 44.2052C30.7107 43.8752 31.1012 43.6043 31.5819 43.4153C32.3026 43.1321 33.0332 43.1388 33.6593 43.4072C34.2855 43.6756 34.8058 44.2052 35.1053 44.9668C35.4006 45.7181 35.3932 46.4452 35.1215 47.0602C34.8498 47.6748 34.3146 48.1755 33.5553 48.4742C32.9415 48.7156 32.291 48.7176 31.736 48.494C31.2057 48.2798 30.7626 47.8603 30.5213 47.2465L30.5083 47.2131C30.4788 47.1385 30.4847 47.0581 30.5175 46.9892C30.5499 46.922 30.6083 46.8652 30.6842 46.8353ZM34.5529 47.2072C34.7157 46.7823 34.7011 46.2565 34.5046 45.6437L31.2689 46.9686C31.4864 47.5145 31.8155 47.9098 32.2017 48.1242C32.586 48.3373 33.0296 48.3712 33.477 48.1953C34.0245 47.9801 34.3848 47.6456 34.5529 47.2072Z" fill="white"/>
<path d="M27.2667 44.5441L29.1581 44.2906L29.1879 44.5121L28.8603 44.556C28.7114 44.5762 28.6322 44.5924 28.6047 44.6283C28.577 44.6645 28.5822 44.7451 28.6022 44.8938L29.1454 48.9477C29.1515 48.9892 29.1715 49.0243 29.2008 49.0466C29.2304 49.0693 29.2709 49.0805 29.3178 49.0748C29.436 49.0535 29.5563 49.0257 29.6757 48.9981L29.6767 48.9978C29.7274 48.9861 29.7787 48.9743 29.8289 48.9631L29.8857 49.1477L29.2814 49.3604C29.1476 49.4063 29.0299 49.4791 28.9558 49.5745C28.8942 49.654 28.8625 49.7514 28.8774 49.8642L28.892 49.9714L28.6775 50L28.5421 48.9903L28.5105 48.7363C28.4439 49.0662 28.2918 49.3517 28.0789 49.565C27.8645 49.7796 27.5887 49.9214 27.2765 49.9635L27.2694 49.9644C26.8677 50.0167 26.5382 49.944 26.2959 49.7729C26.0497 49.599 25.8955 49.3263 25.8495 48.9822L25.3599 45.3286C25.3398 45.1798 25.3237 45.1006 25.2876 45.0729C25.2515 45.0455 25.1706 45.0505 25.0219 45.0703L24.6873 45.1155L24.6576 44.8938L26.6277 44.6298L26.6574 44.8513L26.0211 44.9368C26.0329 44.9664 26.0407 45.0028 26.0479 45.0555L26.5452 48.7657C26.5898 49.0999 26.6701 49.3485 26.7963 49.5025C26.9139 49.6459 27.0771 49.7068 27.2962 49.6773C27.6329 49.6323 27.9088 49.4296 28.0849 49.1171C28.2653 48.7971 28.3422 48.362 28.2751 47.8611L27.8902 44.9894C27.8704 44.8415 27.853 44.763 27.8155 44.7352C27.7774 44.707 27.6946 44.7123 27.5452 44.7324L27.2178 44.7763L27.1882 44.5548L27.2667 44.5441Z" fill="white"/>
<path d="M22.6775 44.6349L22.6408 44.8554L22.3148 44.8011C22.1659 44.7764 22.0848 44.7673 22.0486 44.7924C22.0128 44.817 21.9945 44.8936 21.9699 45.041L21.2671 49.2646C21.2425 49.4118 21.2349 49.4905 21.2607 49.5253C21.2871 49.5607 21.3665 49.5786 21.5151 49.6031L21.8414 49.6574L21.8048 49.8781L19.8438 49.5516L19.8831 49.3171L20.209 49.3714C20.3584 49.3962 20.4415 49.4053 20.4799 49.3798C20.5171 49.3552 20.5364 49.279 20.5608 49.1323L21.2614 44.9233C21.2859 44.7766 21.2922 44.6984 21.2648 44.6628C21.2369 44.6263 21.1554 44.6083 21.006 44.5834L20.6799 44.5291L20.7166 44.3087L22.6775 44.6349Z" fill="white"/>
<path d="M20.4934 44.2453L19.9511 46.2112L19.6736 46.1346L19.7725 45.7742C19.8769 45.393 19.8458 45.0396 19.7153 44.7558C19.5808 44.4629 19.3396 44.2428 19.0327 44.141L19.0293 44.1401C18.7442 44.0468 18.4775 44.0612 18.2606 44.1681C18.0456 44.274 17.8769 44.4719 17.7862 44.7461L17.7849 44.7502C17.6954 45.0232 17.7414 45.2799 17.8595 45.526C17.9819 45.781 18.1826 46.0282 18.3928 46.2714C18.6337 46.5497 18.879 46.8366 19.0328 47.1588C19.1905 47.4891 19.2512 47.8523 19.1137 48.272C18.9974 48.6274 18.7561 48.8767 18.4356 49.0016C18.1208 49.124 17.7302 49.125 17.3092 48.9872C17.095 48.917 16.9247 48.8195 16.7869 48.7097C16.6504 48.6012 16.5457 48.4801 16.462 48.362L16.4533 48.3492C16.427 48.4549 16.3983 48.5606 16.3696 48.6662C16.356 48.7165 16.3423 48.7668 16.329 48.8169L16.1087 48.7448L16.6023 46.962L16.8799 47.0392L16.7786 47.4066C16.7029 47.6844 16.7075 47.9854 16.8269 48.2347C16.9272 48.4443 17.1108 48.619 17.3987 48.7131C17.6567 48.7979 17.8779 48.7972 18.052 48.7131C18.2242 48.6303 18.3552 48.464 18.4363 48.2163C18.5206 47.9589 18.4712 47.7231 18.3514 47.494C18.2265 47.2556 18.0235 47.0208 17.8135 46.7785C17.5665 46.4929 17.3142 46.1866 17.158 45.8395C17 45.4885 16.9405 45.0995 17.0826 44.6552L17.0867 44.6424C17.2151 44.251 17.4843 43.9773 17.843 43.8417C18.1955 43.7084 18.6341 43.7098 19.1077 43.865C19.3261 43.9365 19.5059 44.0313 19.6663 44.1548C19.8259 44.2775 19.9652 44.4278 20.1038 44.611L20.1043 44.612C20.116 44.628 20.1292 44.6518 20.1422 44.6798C20.178 44.5444 20.2156 44.4092 20.2531 44.2742C20.2683 44.2195 20.2836 44.1648 20.2986 44.1102L20.5147 44.1676L20.4934 44.2453Z" fill="white"/>
<path d="M11.7404 42.6102L11.2629 45.2216C11.2583 45.2505 11.2524 45.2777 11.2455 45.3027L11.3153 45.2533L14.9909 42.7861L15.2517 42.9526C14.6992 43.3257 14.1465 43.6987 13.5939 44.0716L13.5732 44.0856L13.5723 44.0862C12.6848 44.685 11.7974 45.2839 10.9105 45.8834L10.3328 45.5146L10.4219 45.3753C10.458 45.3186 10.4943 45.2491 10.5235 45.1828C10.5514 45.1191 10.5724 45.0591 10.5797 45.0184L11.3833 40.6143C11.4139 40.4378 11.4335 40.3239 11.423 40.2476C11.4142 40.1855 11.3791 40.1422 11.3015 40.0924L11.1862 40.019L11.3062 39.8305L12.5947 40.653L12.4745 40.8413L12.0912 40.5965L12.0905 40.6329C12.0874 40.7119 12.0735 40.7965 12.0613 40.8644L11.7965 42.3129L13.1036 43.1472C13.0876 43.0776 13.0808 43.0051 13.0825 42.9327C13.0866 42.7596 13.1396 42.5831 13.2325 42.4376C13.4187 42.1592 13.6416 41.8751 13.86 41.5968C13.9626 41.4661 14.0646 41.3362 14.1609 41.2091L14.3413 41.3514L14.1277 41.6409C14.1559 41.652 14.1869 41.6694 14.2264 41.6944L17.2496 43.6236L17.1293 43.8119L16.8509 43.6344C16.728 43.5559 16.655 43.5261 16.6034 43.5437C16.5475 43.5623 16.4914 43.6385 16.4085 43.7683L14.1361 47.3287C14.0557 47.4548 14.018 47.5243 14.0281 47.5667C14.0383 47.6093 14.1045 47.657 14.2316 47.7381L14.5101 47.9157L14.3902 48.104L12.7145 47.0348L12.8348 46.8465L13.1132 47.0242C13.2409 47.1057 13.3137 47.1468 13.3592 47.1385C13.4031 47.1302 13.4506 47.0679 13.5307 46.9425L15.7955 43.3941C15.8409 43.3229 15.8976 43.267 15.9589 43.2248C15.9809 43.2098 16.0035 43.1965 16.0264 43.1847L14.9301 42.4849C14.651 42.3067 14.4056 42.1879 14.1839 42.1788C13.9717 42.1702 13.7732 42.2662 13.5758 42.5145L13.4311 42.697L13.4101 42.7283C13.3296 42.8542 13.3021 42.9835 13.3272 43.104C13.3522 43.224 13.4296 43.339 13.5587 43.4376L13.7242 43.5431L13.4896 43.7265L11.7404 42.6102Z" fill="white"/>
<path d="M10.1389 38.2359L11.3818 39.6837L11.2122 39.8293L10.9968 39.5784C10.8992 39.4647 10.8424 39.4071 10.7972 39.4036C10.7517 39.4002 10.6868 39.4486 10.5729 39.5462L7.47117 42.2088C7.4382 42.2372 7.41927 42.2742 7.41688 42.3125C7.4145 42.3493 7.4274 42.389 7.45756 42.4247C7.54031 42.5127 7.63003 42.5991 7.71891 42.6847C7.75601 42.7204 7.79296 42.756 7.82919 42.7914L7.70518 42.9399L7.19789 42.549C7.08664 42.462 6.96164 42.4028 6.84057 42.393C6.74026 42.3846 6.64135 42.4108 6.55507 42.4849L6.47315 42.5551L6.33229 42.3909L7.10544 41.7272L7.30114 41.5624C6.98801 41.6865 6.6659 41.7144 6.37115 41.652C6.07416 41.5893 5.8048 41.4353 5.5997 41.1962C5.33848 40.8922 5.21825 40.5796 5.22498 40.286C5.23186 39.9786 5.37734 39.695 5.64543 39.4646L8.44254 37.0637C8.55618 36.966 8.6137 36.9093 8.61721 36.8642C8.62057 36.8189 8.57217 36.7538 8.47439 36.64L8.25469 36.3838L8.42417 36.2381L9.71905 37.7465L9.5493 37.8922L9.13123 37.4051C9.11299 37.4309 9.08648 37.4575 9.04607 37.4922L6.20561 39.9305C5.94944 40.1502 5.7846 40.3528 5.72441 40.5422C5.66802 40.7188 5.70604 40.889 5.85039 41.057C6.07444 41.3181 6.40076 41.4388 6.76509 41.412C7.1276 41.3853 7.52855 41.2129 7.90691 40.8881L10.1053 39.0011C10.2186 38.9039 10.2749 38.8463 10.2777 38.8C10.2803 38.7526 10.2308 38.6863 10.1326 38.5718L9.91742 38.3209L10.0872 38.1755L10.1389 38.2359Z" fill="white"/>
<path fill-rule="evenodd" clip-rule="evenodd" d="M7.34491 34.3772L8.29706 36.2507L8.09757 36.3522L7.94788 36.0572C7.8797 35.9235 7.83817 35.8542 7.7951 35.84C7.75217 35.8262 7.67768 35.8577 7.54384 35.9256L3.7971 37.8296C3.65892 37.8998 3.57446 37.9502 3.54725 38.0067C3.52269 38.0578 3.54248 38.1337 3.60813 38.2629L3.75796 38.5576L3.55847 38.659L2.60604 36.7849C2.21561 36.0165 2.12568 35.2549 2.31031 34.5945C2.49563 33.9317 2.95634 33.3725 3.66607 33.0117C4.37706 32.6505 5.10181 32.6072 5.7477 32.8476C6.39122 33.0871 6.95434 33.6086 7.34491 34.3772ZM7.40973 35.2257L7.45153 35.223L7.17544 34.6797C6.8351 34.0101 6.39023 33.5901 5.86064 33.4261C5.32992 33.2616 4.70885 33.3523 4.01708 33.7037L4.00684 33.7088C3.32362 34.0584 2.88956 34.5038 2.71153 35.0261C2.5328 35.5502 2.61039 36.1574 2.95087 36.8273L3.22668 37.3699L3.25376 37.3375C3.29865 37.289 3.35786 37.2469 3.44021 37.2052L7.1927 35.2981C7.27463 35.2563 7.34351 35.2333 7.40973 35.2257Z" fill="white"/>
<path d="M6.18457 31.4069L4.25263 32.0606L4.1606 31.7878L4.51441 31.6674C4.8887 31.54 5.16353 31.3162 5.32543 31.0491C5.49308 30.7725 5.53979 30.448 5.45043 30.1355C5.36808 29.8475 5.20646 29.635 4.99687 29.5153C4.78742 29.3959 4.52717 29.3676 4.24729 29.4478C3.97134 29.5267 3.78476 29.7086 3.64713 29.9443C3.5046 30.1887 3.41257 30.4934 3.32909 30.8039C3.23412 31.159 3.13409 31.5225 2.95284 31.8314C2.76765 32.1475 2.50096 32.4017 2.07658 32.5233C1.7173 32.626 1.37583 32.5659 1.09286 32.3708C0.814387 32.1787 0.594412 31.8558 0.472499 31.4297C0.410491 31.2133 0.39576 31.0176 0.409228 30.842C0.422696 30.6672 0.464221 30.5128 0.515006 30.3773L0.520618 30.3635C0.419403 30.4005 0.316927 30.4357 0.214543 30.4709L0.213503 30.4712L0.212422 30.4716C0.16312 30.4885 0.112934 30.5058 0.0638329 30.5229L0 30.3004L1.75279 29.7091L1.84482 29.9819L1.48399 30.1041C1.21155 30.1971 0.965058 30.37 0.825469 30.6086C0.707906 30.8092 0.66652 31.0592 0.749852 31.3507L0.750976 31.3545C0.82561 31.6125 0.948926 31.7934 1.11433 31.8904C1.27931 31.9872 1.49129 32.0027 1.74311 31.9306L1.74578 31.9299C2.00433 31.8551 2.17128 31.6821 2.29319 31.4554C2.42043 31.2183 2.50124 30.9186 2.58415 30.6087C2.68179 30.2447 2.79389 29.8644 2.99408 29.5396C3.19806 29.2086 3.49071 28.939 3.94539 28.8091L3.95619 28.8059C4.34844 28.6971 4.72148 28.7674 5.03208 28.9863C5.34044 29.2036 5.58539 29.5677 5.72259 30.0469L5.72568 30.0577C5.78642 30.2742 5.80761 30.4727 5.79568 30.6715C5.78348 30.8719 5.73704 31.0717 5.66311 31.2893L5.66269 31.2907C5.65609 31.3092 5.64347 31.3335 5.62733 31.3603C5.7814 31.3065 5.93632 31.2544 6.09108 31.2023L6.18695 31.1701L6.26046 31.3813L6.18457 31.4069Z" fill="white"/>
<path d="M4.45142 18.8976L4.3925 19.1131L3.93543 18.9885C3.63184 18.9056 3.44455 18.9382 3.32404 19.0336C3.20157 19.1303 3.13788 19.2982 3.08892 19.4782L3.03434 19.6784L5.01258 20.2174C5.09409 20.2392 5.16437 20.2772 5.22288 20.3232C5.24378 20.3395 5.26328 20.3571 5.28124 20.3757L5.61569 19.1484C5.70085 18.836 5.70169 18.5901 5.60643 18.399C5.51173 18.2089 5.31757 18.0663 5.01272 17.9587L4.40106 17.742L4.47288 17.4784L6.47202 18.1601L6.39725 18.3715L6.13238 18.2803L6.13196 18.2914C6.12915 18.3452 6.11737 18.4035 6.10124 18.4632L5.22582 21.6745L5.0102 21.6156L5.09718 21.2964C5.13646 21.1522 5.15231 21.0726 5.13 21.0331C5.10728 20.9935 5.03082 20.9669 4.88618 20.9273L0.769353 19.8054C0.624713 19.766 0.545308 19.7503 0.505887 19.7727C0.466185 19.7953 0.439531 19.8717 0.400109 20.0164L0.313268 20.3353L0.0977821 20.2765L0.871063 17.4392C0.886916 17.3792 0.906557 17.3231 0.931108 17.2757L0.936578 17.2656L0.662171 17.2096L0.70496 16.9903L2.77565 17.4095L2.69961 17.6883L2.13438 17.5685C1.77706 17.4921 1.51836 17.5201 1.33094 17.6431C1.14309 17.7664 1.01907 17.9902 0.933773 18.3037L0.708748 19.1295C0.733439 19.1227 0.759112 19.1175 0.785627 19.114C0.8597 19.1039 0.939247 19.1072 1.02047 19.1292L2.75657 19.6027L2.81114 19.4025C2.86024 19.2225 2.89195 19.0457 2.8371 18.9004C2.78323 18.7578 2.64027 18.6354 2.3371 18.5527L2.01836 18.466L2.07714 18.2505L4.45142 18.8976Z" fill="white"/>
<path d="M7.64611 15.1266L6.24798 17.892L6.04835 17.7912L6.19747 17.4962C6.26313 17.3662 6.28544 17.2904 6.26313 17.241C6.239 17.1874 6.15749 17.139 6.02015 17.0696L2.25068 15.1637C2.11727 15.0961 2.04431 15.0655 2.00349 15.0797C1.96196 15.0939 1.92128 15.1647 1.85324 15.2994L1.70411 15.5947L1.50448 15.4934L2.40149 13.7196L2.60099 13.8206L2.45186 14.1153C2.38353 14.2504 2.34987 14.3273 2.36277 14.3714C2.37512 14.414 2.44204 14.4554 2.57475 14.5225L6.33131 16.422C6.40679 16.4603 6.4681 16.5112 6.51608 16.5679C6.53333 16.5882 6.54876 16.6091 6.56265 16.6308L6.92937 15.9054C7.07892 15.6099 7.17446 15.3506 7.16211 15.1274C7.15019 14.9144 7.03543 14.7273 6.76649 14.5619L6.08987 14.149L6.22623 13.8794L8.12268 15.0121L7.99838 15.2065L7.68932 15.0232C7.68105 15.0522 7.66716 15.085 7.64611 15.1266Z" fill="white"/>
<path fill-rule="evenodd" clip-rule="evenodd" d="M8.68931 8.96625L6.21445 12.1103L6.21964 12.1141C6.8682 12.6248 7.48198 12.8729 8.02434 12.8808C8.57694 12.8888 9.05828 12.6459 9.42794 12.1765C9.7147 11.8125 9.89329 11.4265 9.9661 11.0413C10.0402 10.6497 10.0051 10.2575 9.86369 9.88824L9.83212 9.80533L10.1138 9.7321L10.1389 9.7993C10.2945 10.2168 10.331 10.6605 10.2447 11.1034C10.1611 11.5329 9.96231 11.962 9.64567 12.3658L9.64105 12.3718C9.1621 12.9804 8.52756 13.3435 7.85164 13.4281C7.18344 13.5112 6.47581 13.3223 5.83847 12.829L5.81224 12.8085C5.18065 12.3097 4.82122 11.6793 4.74547 11.0125C4.67041 10.3525 4.87397 9.65873 5.36611 9.02377L5.38323 9.00175C5.79133 8.48337 6.3518 8.15271 6.9441 8.06601C7.50975 7.98282 8.10388 8.12128 8.62183 8.52911L8.65003 8.55127C8.71316 8.60079 8.7488 8.67347 8.75525 8.74951C8.76157 8.82358 8.73996 8.902 8.68931 8.96625ZM5.16185 10.5994C5.23564 11.0479 5.5137 11.4942 5.99279 11.9239L8.11693 9.14681C7.65355 8.78542 7.16997 8.6102 6.72847 8.62016C6.28908 8.63026 5.88926 8.8247 5.59198 9.20236C5.22793 9.66504 5.08567 10.136 5.16185 10.5994Z" fill="white"/>
<path d="M8.11623 6.2874L8.03332 6.16956L9.32427 5.26048L9.4532 5.44342L9.08718 5.70085C9.16771 5.73255 9.2502 5.78362 9.31333 5.82809L12.9616 8.14471C12.9725 8.15187 13.0038 8.17347 13.04 8.20251C13.0281 8.16632 13.0164 8.12465 13.0063 8.07709L12.0949 3.99211C12.0872 3.95704 12.0779 3.92561 12.0667 3.89699C12.0573 3.87286 12.0459 3.85098 12.033 3.83232L12.0315 3.82993C12.0038 3.79079 11.9679 3.76778 11.9244 3.76624C11.8703 3.76428 11.8014 3.78995 11.7164 3.84985L11.1466 4.25095L11.018 4.06815L12.4264 3.07643L12.555 3.25909L12.4196 3.35463C12.348 3.40499 12.3174 3.45507 12.3122 3.52185C12.306 3.60322 12.3308 3.71546 12.3672 3.87455L13.5264 8.84154L13.1433 9.15621L8.8282 6.36611C8.68721 6.27506 8.59013 6.21389 8.51213 6.19369C8.44787 6.17714 8.39022 6.19173 8.31488 6.24462L8.1621 6.35236L8.11623 6.2874Z" fill="white"/>
<path fill-rule="evenodd" clip-rule="evenodd" d="M18.8155 3.16453L15.0923 4.62889L15.0948 4.63492C15.4019 5.41578 15.8152 5.94439 16.2889 6.22161C16.7559 6.49475 17.2856 6.52337 17.8329 6.30803L17.8409 6.30494C18.2681 6.13575 18.6143 5.89403 18.8703 5.59984C19.1321 5.2992 19.3002 4.943 19.3643 4.55341L19.3789 4.46545L19.6592 4.54429L19.6468 4.61472C19.5704 5.05411 19.3776 5.45562 19.0794 5.7947C18.7893 6.12467 18.3988 6.39543 17.918 6.58454L17.9039 6.59001C17.1878 6.86779 16.4627 6.85951 15.8408 6.59296C15.2145 6.3243 14.6942 5.79498 14.3945 5.03348L14.3889 5.01932C14.0992 4.27269 14.1083 3.55103 14.3782 2.93993C14.6498 2.32531 15.1849 1.82434 15.9443 1.52566C16.5435 1.29025 17.1775 1.28226 17.7235 1.49003C18.2714 1.69864 18.7309 2.12386 18.9784 2.7532L18.9916 2.78659C19.0207 2.86109 19.0148 2.94133 18.9822 3.01021C18.9503 3.07713 18.8928 3.13339 18.8176 3.16355L18.8155 3.16453ZM14.9467 2.7929C14.784 3.21756 14.7987 3.74323 14.9951 4.35602L18.2306 3.03112C18.0132 2.48539 17.684 2.08991 17.298 1.87583C16.9137 1.66272 16.47 1.62877 16.0226 1.8047C15.4752 2.02004 15.1148 2.3545 14.9467 2.7929Z" fill="white"/>
<path d="M20.3132 5.70927L20.2835 5.48775L20.6111 5.44383C20.7598 5.42391 20.839 5.40764 20.8665 5.37145C20.8942 5.33553 20.889 5.25444 20.8692 5.10602L20.3257 1.05218C20.3197 1.01065 20.2998 0.975721 20.2704 0.953555C20.2408 0.930688 20.2 0.919604 20.153 0.925076C20.0348 0.946327 19.914 0.97434 19.7944 1.0021C19.7434 1.01392 19.6926 1.0257 19.6424 1.03689L19.5855 0.852125L20.1898 0.639723C20.3237 0.593708 20.4413 0.521037 20.5154 0.425359C20.5768 0.345954 20.6087 0.248454 20.5937 0.13566L20.5796 0.0287568L20.7937 0L20.9291 1.00967L20.9607 1.2636C21.0272 0.933632 21.1794 0.648283 21.3923 0.435041C21.6067 0.220397 21.8825 0.0782801 22.1944 0.0364735C22.5921 -0.0168369 22.9198 0.0526062 23.1624 0.218149C23.416 0.391128 23.5747 0.667781 23.6216 1.01795L24.1115 4.67154C24.1312 4.82011 24.1475 4.89951 24.1837 4.92687C24.2198 4.95464 24.3006 4.94945 24.4493 4.92939L24.784 4.88464L24.8137 5.10602L22.8436 5.37005L22.8139 5.14853L23.4503 5.06337C23.4385 5.03377 23.4303 4.99729 23.4235 4.94468L22.926 1.23428C22.8812 0.900245 22.8011 0.651509 22.6749 0.49733C22.5575 0.353953 22.3942 0.293347 22.1749 0.322388C21.8385 0.367561 21.5622 0.57028 21.3863 0.882708C21.2058 1.20299 21.129 1.63817 21.1961 2.13887L21.5809 5.01062C21.6008 5.15849 21.6181 5.23705 21.6557 5.26455C21.694 5.29303 21.7766 5.28755 21.926 5.26763L22.2536 5.22386L22.2832 5.44524L20.3132 5.70927Z" fill="white"/>
<path d="M28.6475 5.67854L26.7652 5.36527L26.8018 5.14474L27.1278 5.19889C27.2765 5.22358 27.3578 5.23256 27.394 5.20773C27.4296 5.18318 27.448 5.10644 27.4725 4.95885L28.1754 0.735683C28.1999 0.588238 28.2075 0.509674 28.1817 0.474601C28.1555 0.439388 28.0759 0.42157 27.9275 0.396879L27.6012 0.342729L27.6378 0.122193L29.5988 0.448228L29.5595 0.683074L29.2335 0.62878C29.0841 0.604089 29.0011 0.594832 28.9627 0.620224C28.9255 0.644915 28.906 0.721092 28.8818 0.867415L28.1811 5.07684C28.1567 5.22358 28.1504 5.30172 28.1778 5.33736C28.2057 5.37369 28.2872 5.39179 28.4365 5.41662L28.7626 5.47091L28.726 5.69145L28.6475 5.67854Z" fill="white"/>
<path d="M29.4916 3.86038L29.7691 3.9374L29.6702 4.29752C29.5657 4.67897 29.5968 5.03208 29.7271 5.31617C29.8622 5.60994 30.1047 5.83076 30.4132 5.93191C30.6981 6.02534 30.9649 6.01061 31.1818 5.90399C31.398 5.79737 31.5672 5.59801 31.6577 5.32192C31.7472 5.04892 31.7012 4.79205 31.583 4.54584C31.4606 4.29079 31.26 4.0436 31.0498 3.80047C30.8089 3.52214 30.5636 3.2351 30.4099 2.91299C30.2523 2.58261 30.1915 2.21954 30.329 1.79979C30.4454 1.44429 30.6869 1.19527 31.0073 1.07041C31.3223 0.947801 31.7127 0.946819 32.1337 1.08487C32.3479 1.15487 32.5182 1.25251 32.656 1.36208C32.7926 1.47109 32.8973 1.5923 32.9812 1.71042L32.9896 1.72249C33.0163 1.61611 33.0452 1.5096 33.074 1.40314C33.0873 1.35407 33.1008 1.30407 33.1139 1.25504L33.3342 1.32715L32.8406 3.10982L32.563 3.03294L32.6641 2.66566C32.74 2.38761 32.7353 2.08654 32.616 1.83753C32.5157 1.62751 32.3319 1.45285 32.0442 1.35871C31.787 1.2744 31.5668 1.2751 31.3927 1.35787C31.2198 1.4405 31.088 1.60703 31.0066 1.85534L31.0051 1.85997C30.9228 2.11586 30.9724 2.35029 31.0915 2.5777C31.2162 2.81605 31.4191 3.05104 31.6292 3.2936C31.8763 3.57895 32.1285 3.88549 32.2846 4.23257C32.4442 4.5868 32.5031 4.98018 32.3559 5.42967C32.2275 5.82108 31.9583 6.0945 31.5995 6.23016C31.2468 6.36344 30.8082 6.36218 30.3346 6.20702C30.1162 6.13533 29.9366 6.04063 29.7761 5.9169C29.6166 5.794 29.4774 5.64375 29.3388 5.46067L29.3383 5.45969C29.3265 5.44384 29.3133 5.41985 29.3002 5.39179C29.2673 5.51682 29.2326 5.64167 29.198 5.76654L29.1973 5.76887C29.1794 5.83321 29.1616 5.89755 29.144 5.96193L28.9279 5.90399L29.4916 3.86038Z" fill="white"/>
<path d="M37.7452 7.46164L38.2226 4.85027C38.2272 4.82137 38.2331 4.79429 38.24 4.76904L38.1704 4.81828L34.4948 7.28543L34.234 7.11905L38.5751 4.18837L39.1528 4.55692L39.0638 4.69637C39.0276 4.75305 38.9912 4.82249 38.9622 4.88885C38.9341 4.95254 38.9131 5.01258 38.9059 5.05327L38.1022 9.45741L38.1019 9.45947C38.0716 9.63455 38.052 9.74814 38.0626 9.82399C38.0713 9.88614 38.1064 9.92949 38.1841 9.97915L38.2995 10.0528L38.1795 10.2412L36.8909 9.41869L37.0112 9.23056L37.3944 9.47523L37.395 9.43861C37.3981 9.35977 37.4121 9.27503 37.4242 9.20727L37.6891 7.75877L36.382 6.9246C36.398 6.99419 36.4048 7.06658 36.4032 7.13897C36.3989 7.31237 36.3459 7.48857 36.253 7.63419C36.0679 7.91074 35.8472 8.19202 35.6306 8.46815C35.5262 8.60119 35.4228 8.73303 35.3247 8.86258L35.1443 8.72018L35.3578 8.43062C35.3296 8.41968 35.2985 8.40229 35.2592 8.37731L32.2361 6.44804L32.3563 6.25963L32.6348 6.43723C32.7577 6.5158 32.8307 6.54554 32.8821 6.528C32.938 6.50934 32.9942 6.43331 33.077 6.30354L35.3494 2.74296C35.4298 2.61684 35.4677 2.54753 35.4576 2.50517C35.4473 2.46224 35.3811 2.41468 35.254 2.33373L34.9756 2.15585L35.0955 1.96758L36.7711 3.03687L36.6509 3.22514L36.3723 3.04739C36.2448 2.96602 36.172 2.92492 36.1265 2.93319C36.0826 2.94147 36.0349 3.00362 35.9549 3.12904L33.6902 6.67769C33.6446 6.74896 33.5879 6.80465 33.5268 6.84688C33.5047 6.86189 33.482 6.87508 33.4592 6.88701L34.5555 7.58664C34.8346 7.76481 35.0799 7.88377 35.3017 7.89289C35.5141 7.90145 35.7124 7.80549 35.9099 7.55717L36.0548 7.37438L36.0756 7.34337C36.1561 7.21753 36.1836 7.08832 36.1585 6.96781C36.1334 6.84772 36.0559 6.73283 35.9269 6.63406L35.7615 6.52856L35.996 6.3452L37.7452 7.46164Z" fill="white"/>
<path d="M39.318 11.8358L38.0753 10.388L38.2449 10.2423L38.4602 10.4933C38.5579 10.6071 38.6145 10.6646 38.6597 10.668C38.7052 10.6715 38.7701 10.6231 38.884 10.5254L41.9857 7.86301C42.0188 7.83453 42.0378 7.79763 42.0402 7.75919C42.0424 7.72244 42.0295 7.68273 41.9995 7.64696C41.9182 7.56054 41.8301 7.47573 41.7428 7.39165C41.7041 7.3544 41.6656 7.31729 41.6279 7.28024L41.7519 7.13181L42.2592 7.5228C42.3704 7.60964 42.4954 7.66885 42.6165 7.67881C42.7168 7.68694 42.8157 7.66071 42.9018 7.58677L42.9839 7.51677L43.1249 7.68077L42.3516 8.34434L42.1559 8.50919C42.4689 8.38517 42.7911 8.35725 43.0859 8.41968C43.3827 8.48239 43.6522 8.63643 43.8573 8.87534C44.1184 9.17949 44.2388 9.49206 44.2321 9.78569C44.2252 10.0931 44.0796 10.3769 43.8115 10.6071L41.0145 13.008C40.9007 13.1057 40.8432 13.1623 40.8398 13.2075C40.8363 13.253 40.8847 13.3178 40.9825 13.4316L41.2023 13.6877L41.0329 13.8336L39.738 12.3251L39.9077 12.1795L40.3258 12.6668C40.3443 12.6406 40.3707 12.6137 40.4108 12.5794L43.2514 10.1412C43.5075 9.92149 43.6723 9.71877 43.7326 9.52952C43.7889 9.35276 43.7507 9.18258 43.6066 9.01451C43.3825 8.75343 43.0561 8.63278 42.6918 8.65972C42.3293 8.68624 41.9285 8.85879 41.5501 9.18356L39.3516 11.0706C39.2383 11.1678 39.182 11.2252 39.1794 11.2717C39.1765 11.3189 39.2261 11.3856 39.3244 11.4999L39.5396 11.7507L39.3699 11.8961L39.318 11.8358Z" fill="white"/>
<path fill-rule="evenodd" clip-rule="evenodd" d="M42.0691 15.6944L41.1169 13.821L41.3164 13.7197L41.466 14.0143C41.5341 14.1482 41.5757 14.2177 41.6187 14.2316C41.6619 14.2458 41.7364 14.2142 41.8704 14.1461L45.6166 12.2422C45.7548 12.1718 45.8395 12.1215 45.8667 12.065C45.8913 12.0138 45.8714 11.9379 45.8057 11.8085L45.6562 11.5141L45.8555 11.4129L46.8079 13.2869C47.1982 14.0552 47.2882 14.8169 47.1035 15.4771C46.9184 16.1403 46.4575 16.6995 45.7479 17.06C45.0369 17.4213 44.3122 17.4646 43.6663 17.224C43.0228 16.9846 42.4596 16.4631 42.0691 15.6944ZM42.0042 14.846L41.9623 14.8486L42.2385 15.392C42.5789 16.0616 43.0237 16.4816 43.5533 16.6456C44.0839 16.81 44.7051 16.7197 45.3969 16.368L45.4033 16.3648C46.0887 16.015 46.5241 15.5689 46.7024 15.0457C46.881 14.5215 46.8035 13.9143 46.463 13.2446L46.1872 12.7018L46.1602 12.734C46.1152 12.7831 46.056 12.8248 45.9741 12.8665L42.221 14.7737C42.1388 14.8152 42.0702 14.8384 42.0042 14.846Z" fill="white"/>
<path d="M45.2931 18.0979L45.3718 18.3753L45.0122 18.4785C44.6326 18.5874 44.3472 18.7977 44.1727 19.0568C43.9919 19.3253 43.9295 19.647 44.0035 19.9632C44.0721 20.255 44.2232 20.4751 44.4268 20.6048C44.6302 20.734 44.8886 20.7747 45.1721 20.7083C45.4517 20.6425 45.6469 20.4699 45.7957 20.2409C45.9499 20.0035 46.0565 19.7037 46.1549 19.3977C46.267 19.0477 46.3847 18.689 46.5798 18.3897C46.78 18.083 47.0589 17.8417 47.4886 17.7411C47.8527 17.6557 48.1908 17.7322 48.4639 17.9408C48.7329 18.1462 48.9368 18.4791 49.0381 18.9106C49.0893 19.1295 49.0947 19.3255 49.0728 19.5004C49.0509 19.6745 49.0018 19.8269 48.9447 19.9594L48.9385 19.9733C49.0485 19.9389 49.1598 19.9067 49.271 19.8745C49.315 19.8617 49.3589 19.849 49.4027 19.8361L49.4558 20.0618L47.6763 20.5679L47.5976 20.2904L47.9639 20.1857C48.2407 20.1062 48.4954 19.9457 48.6462 19.7139C48.773 19.5189 48.8266 19.2713 48.7574 18.9764C48.6953 18.712 48.5797 18.5237 48.4174 18.4185C48.2574 18.3148 48.0471 18.2894 47.7932 18.3489C47.5294 18.4108 47.3537 18.5756 47.2208 18.7968C47.0818 19.0283 46.9868 19.3232 46.8893 19.6283C46.774 19.988 46.6435 20.363 46.4285 20.677C46.2088 20.9977 45.9035 21.2529 45.4431 21.3608C45.0422 21.4548 44.6686 21.367 44.366 21.1311C44.0683 20.8992 43.8412 20.524 43.7276 20.0388C43.6751 19.8152 43.6626 19.6125 43.6846 19.4115C43.7065 19.2111 43.7624 19.014 43.8468 18.8003L43.8474 18.7994C43.855 18.7808 43.8686 18.7571 43.8858 18.7316C43.7544 18.7707 43.6222 18.8082 43.4902 18.8456L43.4886 18.8461C43.4317 18.8622 43.3746 18.8784 43.3178 18.8946L43.2545 18.6798L45.2931 18.0979Z" fill="white"/>
<path d="M3.20269 25.02C3.20269 24.5399 2.81352 24.1507 2.33359 24.1507C1.85351 24.1507 1.46449 24.5399 1.46449 25.02C1.46449 25.4998 1.85351 25.8889 2.33359 25.8889C2.81352 25.8889 3.20269 25.4998 3.20269 25.02Z" fill="white"/>
<path d="M47.2097 24.1507C47.6897 24.1507 48.0788 24.5399 48.0788 25.02C48.0788 25.4998 47.6897 25.8889 47.2097 25.8889C46.7297 25.8889 46.3406 25.4998 46.3406 25.02C46.3406 24.5399 46.7297 24.1507 47.2097 24.1507Z" fill="white"/>
<path d="M69.4558 38.1064V37.7723H70.0536C70.9876 37.7723 71.548 36.7327 72.1085 35.4703L82.5697 11.4109H85.4839V11.8564C85.4839 12.599 85.6334 13.5644 85.8202 14.0099L94.6376 35.4703C95.3848 37.2525 95.6089 37.7723 96.8419 37.7723H97.1408V38.1064H90.0047V37.7723H92.8816V37.698C92.3959 37.5124 91.9849 36.5842 91.7233 35.953L89.6311 30.8663H74.8359L72.8183 35.4703C72.6689 35.8045 72.5942 36.0644 72.5942 36.3243C72.5942 37.2154 73.304 37.7723 74.4249 37.7723H76.2556V38.1064H69.4558ZM75.0974 30.198H89.3322L83.0181 14.7153C82.7565 14.1213 82.7192 13.6386 82.7192 13.2302H82.3829C82.3829 13.453 82.2708 13.9356 81.9346 14.7153L75.0974 30.198Z" fill="white"/>
<path d="M103.709 37.4381H107.67C115.703 37.4381 120.074 33.0198 120.074 24.7401C120.074 16.5347 115.703 12.0792 107.67 12.0792H103.709V12.1163C104.158 12.5619 104.345 13.0074 104.345 13.8614V35.6559C104.345 36.5099 104.158 36.9554 103.709 37.401V37.4381ZM98.1425 38.1064V37.7723H99.4502C101.244 37.7723 101.43 37.5866 101.43 35.8045V14.047C101.43 12.2648 101.244 11.745 99.4502 11.745H98.1425V11.4109H108.679C117.421 11.4109 123.287 16.7574 123.287 24.7401C123.287 32.7599 117.421 38.1064 108.679 38.1064H98.1425Z" fill="white"/>
<path d="M124.806 38.1064V37.7723H125.404C127.309 37.7723 127.608 37.2153 127.72 35.1361L128.729 13.7129C128.729 13.453 128.729 13.1931 128.729 12.9332C128.729 12.1163 128.505 11.745 126.898 11.745H125.404V11.4109H130.896L140.573 32.6856C140.909 33.4282 141.133 34.0594 141.133 34.2822H141.32C141.32 34.0594 141.581 33.2426 141.843 32.6856L151.52 11.4109H157.124V11.745H155.853C154.023 11.745 153.761 12.302 153.761 13.3787C153.761 13.6757 153.761 14.0099 153.799 14.3812L154.658 35.1361C154.733 37.2525 154.994 37.7723 157.049 37.7723H157.871V38.1064H148.12V37.7723H149.465C151.482 37.7723 151.744 37.2525 151.744 36.3614C151.744 36.1757 151.744 35.953 151.744 35.6931L150.996 16.1262C150.959 15.4579 150.959 14.901 150.959 14.4926H150.735C150.735 14.604 150.473 15.2351 150.137 16.0149L140.087 38.255L139.975 38.5149H139.9L139.788 38.255L129.887 16.4233C129.551 15.6807 129.476 14.9752 129.476 14.8639H129.327C129.327 15.198 129.327 15.4579 129.289 16.1262L128.355 35.6188C128.318 35.953 128.281 36.25 128.281 36.4728C128.281 37.3639 128.617 37.7723 130.672 37.7723H132.017V38.1064H124.806Z" fill="white"/>
<path d="M158.855 38.1064V37.7723H160.163C161.956 37.7723 162.143 37.6238 162.143 35.8416V13.6757C162.143 11.8936 161.956 11.745 160.163 11.745H158.855V11.4109H168.382V11.8193H167.075C165.281 11.8193 165.057 11.9678 165.057 13.75V35.8416C165.057 37.6238 165.281 37.7723 167.075 37.7723H168.382V38.1064H158.855Z" fill="white"/>
<path d="M169.692 38.1064V37.7723H170.663C172.456 37.7723 172.681 37.5866 172.681 35.8045V13.7129C172.681 11.9307 172.456 11.745 170.663 11.745H169.692V11.4109H175.408L185.645 30.1238C186.056 30.8292 186.318 31.349 186.318 31.4975H186.542C186.504 31.0891 186.504 30.5693 186.504 29.9381V14.0842C186.504 12.302 185.907 11.745 184.113 11.745H182.432V11.4109H190.128V11.745H189.531C187.737 11.745 187.14 12.302 187.14 14.0842V38.8119H186.841C186.841 38.4406 186.28 37.401 185.795 36.5099L174.212 15.6064C173.801 14.9381 173.465 14.1955 173.465 14.1584H173.278C173.316 14.5668 173.316 15.1238 173.316 15.755V35.8045C173.316 37.5866 173.54 37.7723 175.333 37.7723H176.305V38.1064H169.692Z" fill="white"/>
<path d="M206.928 12.1163V12.302C207.377 12.896 207.564 13.75 207.564 14.604V27.0421H209.656C214.363 27.0421 216.904 24.4431 216.904 19.5792C216.904 14.7525 214.363 12.1163 209.656 12.1163H206.928ZM201.361 38.1064V37.7723H202.669C204.463 37.7723 204.649 37.5866 204.649 35.8045V13.7129C204.649 11.9307 204.463 11.745 202.669 11.745H201.361V11.4109H210.777C216.381 11.4109 220.154 14.6782 220.154 19.5792C220.154 24.4802 216.381 27.7104 210.777 27.7104H207.564V35.8045C207.564 37.5866 207.788 37.7723 209.581 37.7723H210.515V38.1064H201.361Z" fill="white"/>
<path d="M217.662 38.1064V37.7723H218.26C219.194 37.7723 219.754 36.7327 220.315 35.4703L230.776 11.4109H233.69V11.8564C233.69 12.599 233.84 13.5644 234.026 14.0099L242.844 35.4703C243.591 37.2525 243.815 37.7723 245.048 37.7723H245.347V38.1064H238.211V37.7723H241.088V37.698C240.602 37.5124 240.191 36.5842 239.93 35.953L237.837 30.8663H223.042L221.025 35.4703C220.875 35.8045 220.8 36.0644 220.8 36.3243C220.8 37.2154 221.51 37.7723 222.631 37.7723H224.462V38.1064H217.662ZM223.304 30.198H237.538L231.224 14.7153C230.963 14.1213 230.925 13.6386 230.925 13.2302H230.589C230.589 13.453 230.477 13.9356 230.141 14.7153L223.304 30.198Z" fill="white"/>
<path d="M246.349 38.1064V37.7723H247.32C249.113 37.7723 249.338 37.5866 249.338 35.8045V13.7129C249.338 11.9307 249.113 11.745 247.32 11.745H246.349V11.4109H252.065L262.302 30.1238C262.713 30.8292 262.975 31.349 262.975 31.4975H263.199C263.161 31.0891 263.161 30.5693 263.161 29.9381V14.0842C263.161 12.302 262.564 11.745 260.77 11.745H259.089V11.4109H266.786V11.745H266.188C264.394 11.745 263.797 12.302 263.797 14.0842V38.8119H263.498C263.498 38.4406 262.937 37.401 262.452 36.5099L250.869 15.6064C250.459 14.9381 250.122 14.1955 250.122 14.1584H249.935C249.973 14.5668 249.973 15.1238 249.973 15.755V35.8045C249.973 37.5866 250.197 37.7723 251.99 37.7723H252.962V38.1064H246.349Z" fill="white"/>
<path d="M280.162 30.4579H279.826V28.4158C279.826 24.8515 277.883 24.4431 275.791 24.4431H274.296V35.4703C274.296 36.2871 273.923 36.9554 273.474 37.401V37.4381H280.909C284.496 37.4381 286.215 35.9901 286.476 32.4257L286.701 29.4554H287.298L286.663 39.5173H286.327L286.439 37.7723H286.402C286.14 38.0322 285.617 38.1064 285.019 38.1064H268.094V37.7723H269.402C271.195 37.7723 271.382 37.5866 271.382 35.8045V13.7129C271.382 11.9307 271.195 11.745 269.402 11.745H268.094V11.4109H283.002C283.599 11.4109 284.123 11.4851 284.384 11.745H284.421L284.309 10.0371L284.646 10L285.318 20.0619H284.646L284.496 17.4629C284.272 13.453 282.329 12.0792 278.742 12.0792H273.474V12.1163C273.923 12.5619 274.296 13.2302 274.296 14.047V23.7748H275.791C277.883 23.7748 279.826 23.4035 279.826 19.8391V18.5396H280.162V30.4579Z" fill="white"/>
<path d="M288.709 38.1064V37.7723H290.017C291.81 37.7723 291.997 37.3267 291.997 35.5446V13.6757C291.997 11.8936 291.81 11.745 290.017 11.745H288.709V11.4109H298.236V11.745H296.929C295.135 11.745 294.911 11.8936 294.911 13.6757V35.4703C294.911 36.2871 294.537 36.9554 294.089 37.401V37.4381H299.133C302.72 37.4381 305.111 36.7327 305.41 33.1683L305.709 29.4554H306.456L305.709 40L305.335 39.9629L305.484 37.7723H305.447C305.185 38.0322 305.036 38.1064 304.438 38.1064H288.709Z" fill="white"/>
</svg>
